<svg xmlns="http://www.w3.org/2000/svg" viewBox="0 0 500 500"><path fill="#0a1f35" d="m269.94 116.56-13.99 4.51-13.35.15q-33.09-.35-45.35.29-10.36.54-21.08 6.3l-7.72 5.35-5.2 5.1q-1.06 1.47-1.56 3.06a.92.91-58.8 0 0 .21.89q.74.81 2.41 1.06 5.92 2.79 12.47 3.98c1.54.36 17.66 3.83 12.8 8.82q-1.59 1.64-2.44 2.11-11.53 6.39-23.76 10.95c-9.85 3.67-19.16 5.13-26.68-3.77-2.37-2.81-4.71-5.89-6.74-9.17q16.34-27.26 46.79-36.92 5.5-1.75 11.27-2.43 4.35-.52 19.98-.65 31-.26 61.94.37"/><path fill="#0e3a4b" d="m317.93 118.42-16.93-.08a.11.11 0 0 0-.02.22c7.01 1.21 13.24 3.75 15.82 10.96l.73 3.7-.34 6.21-.49 1.58-19.23-12.41c-6.21-6.49-13.7-7.09-22.97-7.33q-9.26-.23-18.55-.2l13.99-4.51q18.43-.14 36.81.27 5.68.12 11.18 1.59"/><path fill="#859aa5" d="M317.93 118.42q8.08 1.42 14.1 4.44 5.66 6.29 10.64 12.39 4.23 5.19 7.37 7.29 6.43 4.29 14.41 5.41l4.01 5.45 2.4 8.9q-3.77 1.86-7.72-.31-7.69-4.24-19.44-10.92-2.61-1.5-7.02-6.12c-5.67-5.97-13-10.91-19.88-15.43-2.58-7.21-8.81-9.75-15.82-10.96a.11.11 0 0 1 .02-.22z"/><path fill="#607a89" d="M255.95 121.07q9.29-.03 18.55.2c9.27.24 16.76.84 22.97 7.33l1.06 1.78q-19.43.74-40.09-2.37-9.24-1.4-15.84-6.79z"/><path fill="#576d7c" d="M242.6 121.22q6.6 5.39 15.84 6.79 20.66 3.11 40.09 2.37l1.85 4.23q-18.01-.22-35.77-.15-8.3.02-14.75 3.11-16.53-3.52-26.16-4.52-23.65-2.46-47.53-5.24 10.72-5.76 21.08-6.3 12.26-.64 45.35-.29"/><path fill="#a3bdc5" d="M332.03 122.86q19.75 8.16 32.42 25.09-7.98-1.12-14.41-5.41-3.14-2.1-7.37-7.29-4.98-6.1-10.64-12.39"/><path fill="#455c6b" d="M176.17 127.81q23.88 2.78 47.53 5.24 9.63 1 26.16 4.52-5.81.05-10.06 2.42c-24.31-2.88-47.53-4.75-71.35-6.83z"/><path fill="#134758" d="m316.7 141.01-1.21 3.72-2.3 5.98a1.07 1.06 40.8 0 0 .07.91q7.42 13.19 19.48 22.22c-8.87-1.03-14.75.07-17.81 9.47-4.56 13.98-3.66 27.63 5.39 40.31q7.17 5.78 9.56 7.24 10.78 6.61 15.22 10.62 17.97 16.24 15.32 40.45a1.38 1.35 66.7 0 1-.25.65l-1.46 1.93.45-1.99a.66.64 80.5 0 1 .27-.39q.2-.13.29-.3a.23.23 0 0 0-.38-.25q-.7.85-1.26 1.06a.49.48-1.8 0 1-.64-.6q1.79-5.41 1.85-10.44c.09-7.23-4.35-14.75-8.13-21.07-2.58-4.31-7.38-8.03-11.1-10.82-3.99-2.99-10.3-6.11-15.22-10.34-4.28-3.68-7.88-7.23-12.24-10.54q-5.85-9.52-5.91-17.93c-.1-14.88.7-31.23-11.31-41.99-9.18-8.22-21.81-9.65-34.1-9.55l-14.08-2.88c6.05-.72 13.06 1.02 19.52 1.26q14.86.54 28.37-1.44a2.51 2.42-62 0 0 .8-.26c3.87-1.95 5.1-7.72 4.49-11.43l-1.85-4.23-1.06-1.78z"/><path fill="#607a89" d="m370.86 162.3.12 5.34q-18.47-7.17-29.85-16.19-11.64-9.23-23.6-18.23l-.73-3.7c6.88 4.52 14.21 9.46 19.88 15.43q4.41 4.62 7.02 6.12 11.75 6.68 19.44 10.92 3.95 2.17 7.72.31"/><path fill="#3c6675" d="M300.38 134.61c.61 3.71-.62 9.48-4.49 11.43a2.51 2.42-62 0 1-.8.26q-13.51 1.98-28.37 1.44c-6.46-.24-13.47-1.98-19.52-1.26l-9.39-1.27q-2.27-3.09 1.99-5.22 4.25-2.37 10.06-2.42 6.45-3.09 14.75-3.11 17.76-.07 35.77.15"/><path fill="#304c5d" d="M168.45 133.16c23.82 2.08 47.04 3.95 71.35 6.83q-4.26 2.13-1.99 5.22l-37.85-2.76-36.71-4.19z"/><path fill="#576d7c" d="m370.98 167.64-1.09 4.81-.3 2.29a.37.36-73.1 0 1-.52.28c-18.8-8.92-37.44-20.14-51.88-35.59l.34-6.21q11.96 9 23.6 18.23 11.38 9.02 29.85 16.19"/><path fill="#132e43" d="m163.25 138.26 36.71 4.19 22.07 4.43q-5.61.99-9.11 1.02-12.77.11-30.03-1.24-9.46-.74-18.58-3.39-1.67-.25-2.41-1.06a.92.91-58.8 0 1-.21-.89q.5-1.59 1.56-3.06"/><path fill="#455c6b" d="M317.19 139.43c14.44 15.45 33.08 26.67 51.88 35.59a.37.36-73.1 0 0 .52-.28l.3-2.29.03 8.37q-22.27-8.14-40.76-22.39-7.45-5.75-13.67-13.7l1.21-3.72z"/><path fill="#134758" d="m237.81 145.21 9.39 1.27 14.08 2.88q-12.7 6.33-22.51 16.41-2.54 2.61-8.83 11.06a2.55 2.48 2.9 0 1-.73.64l-6.42 3.66-4.14 3.09a1.45 1.45 0 0 1-.9.29q-8.78-.18-17.16.52c-30.53 2.54-42.32 25.88-55.78 48.89q-1.98 3.39-4.78 6.01c-6.51 6.09-10.17-7.17-11.13-11.01q-3.42-13.69-7.53-38.35-.55-3.34-.31-7.12.22-3.59.52-7.17l1.99-6.33c1.11 12.29 2.98 25.34 7.68 36.7 4.66 11.23 11.74 12.27 20.13 3.64 10.31-10.61 18.34-20.18 31.98-25.45 17.37-6.72 37.22-3.41 48.17-22.95 4.66-8.31-2.6-12.3-9.5-15.01l-22.07-4.43z"/><path fill="#0e3a4b" d="M222.03 146.88c6.9 2.71 14.16 6.7 9.5 15.01-10.95 19.54-30.8 16.23-48.17 22.95-13.64 5.27-21.67 14.84-31.98 25.45-8.39 8.63-15.47 7.59-20.13-3.64-4.7-11.36-6.57-24.41-7.68-36.7l2.14-5.38q1.95 7.86 4.78 15.3c8.77 23.05 22.47 11.71 36.22 2.37 9.94-6.76 19.95-9.91 33.2-14.58 3.86-1.37 10.77-4.55 12.82-7.96 4.28-7.13-6.76-9.68-11.59-10.37q-12.09-1.72-24.36-2.08-6.55-1.19-12.47-3.98 9.12 2.65 18.58 3.39 17.26 1.35 30.03 1.24 3.5-.03 9.11-1.02"/><path fill="#304c5d" d="M315.49 144.73q6.22 7.95 13.67 13.7 18.49 14.25 40.76 22.39l-.05 7.88q-19.09-6-37.13-14.86-12.06-9.03-19.48-22.22a1.07 1.06 40.8 0 1-.07-.91z"/><path fill="#132e43" d="m125.71 164.57 4.25-8.38c2.03 3.28 4.37 6.36 6.74 9.17 7.52 8.9 16.83 7.44 26.68 3.77q12.23-4.56 23.76-10.95.85-.47 2.44-2.11c4.86-4.99-11.26-8.46-12.8-8.82q12.27.36 24.36 2.08c4.83.69 15.87 3.24 11.59 10.37-2.05 3.41-8.96 6.59-12.82 7.96-13.25 4.67-23.26 7.82-33.2 14.58-13.75 9.34-27.45 20.68-36.22-2.37q-2.83-7.44-4.78-15.3"/><path fill="#106671" d="M312.6 218.83c3.56 4.82 8.55 7.41 10.87 10.86a.52.52 0 0 1-.71.72q-5.44-3.53-11.97-6.52-1.84-.85-5.77-5.63-.67-.52-1.06-1.27c-.87-4.07-3-6.68-5.82-10.35a1 .99-55 0 1-.16-.93c5.08-15.08 5.94-32.21-8.64-42.38q-14.53-10.13-31.8-3.75c-8.15 3-17.55 9.2-22.03 17.03q-6.26 1.83-11.79 5.44-.62-.33-.93-.92l6.42-3.66a2.55 2.48 2.9 0 0 .73-.64q6.29-8.45 8.83-11.06 9.81-10.08 22.51-16.41c12.29-.1 24.92 1.33 34.1 9.55 12.01 10.76 11.21 27.11 11.31 41.99q.06 8.41 5.91 17.93"/><path fill="#0a1f35" d="M376.47 167.7q.64 14.61.49 29.01c-.1 10.27-1.77 47.54-22.9 34.66q-8.88-5.42-13.78-15.09c-6.37-12.57-1.45-22.94 7.79-32.14q11.05 5.43 19.15 14.64a.52.52 0 0 0 .9-.25l1.75-9.83.05-7.88-.03-8.37 1.09-4.81-.12-5.34-2.4-8.9q5.15 6.68 8.01 14.3"/><path fill="#10848e" d="M303.96 216.99q-3.06-2.48-5.12-5.75c-3.65-2.27-6.08-4.48-6.23-8.83q.57.36 1.06.17.41-.16.58-.86c2.21-8.97 3.08-17.61-2.06-24.99q-9.54-13.67-27.02-12.62-10.2.62-19.13 6.99-2.34 1.67-2.98 3.67l-1.29.39q-1.36.31-2.65.49-.6.08-.78-.11-.4-.42-.35-.8a.28.28 0 0 0-.44-.25q-.43.33-.45.63a.32.32 0 0 0 .31.35q.29 0 .33.29a.23.22 78.5 0 1-.16.25l-2.07.6c4.48-7.83 13.88-14.03 22.03-17.03q17.27-6.38 31.8 3.75c14.58 10.17 13.72 27.3 8.64 42.38a1 .99-55 0 0 .16.93c2.82 3.67 4.95 6.28 5.82 10.35"/><path fill="#0c9db8" d="m292.61 202.41-5.23-8.93q.03-14.64-14.86-19.31-9.08-2.84-17.52.5l-11.94.1q.64-2 2.98-3.67 8.93-6.37 19.13-6.99 17.48-1.05 27.02 12.62c5.14 7.38 4.27 16.02 2.06 24.99q-.17.7-.58.86-.49.19-1.06-.17"/><path fill="#132e43" d="M382.2 189.91q-1.52 13.49-3.54 26.78c-1.43 9.45-5.85 36.24-22.33 24.1q-11.01-8.11-19.58-17.89c-11.97-13.67-7.02-29.04.41-43.8a.55.54 27.5 0 1 .74-.23l10.17 5.27c-9.24 9.2-14.16 19.57-7.79 32.14q4.9 9.67 13.78 15.09c21.13 12.88 22.8-24.39 22.9-34.66q.15-14.4-.49-29.01 4.73 10.79 5.73 22.21"/><path fill="#0e3a4b" d="M332.74 173.84q18.04 8.86 37.13 14.86l-1.75 9.83a.52.52 0 0 1-.9.25q-8.1-9.21-19.15-14.64l-10.17-5.27a.55.54 27.5 0 0-.74.23c-7.43 14.76-12.38 30.13-.41 43.8q8.57 9.78 19.58 17.89c16.48 12.14 20.9-14.65 22.33-24.1q2.02-13.29 3.54-26.78l.49 48.26q-5.53 15.31-7.76 19.94c-4.15 8.6-9.19 8.19-14.46.72q-2.76-3.9-8.73-11.36c-8.14-10.15-20.2-17.65-31.42-23.85-9.05-12.68-9.95-26.33-5.39-40.31 3.06-9.4 8.94-10.5 17.81-9.47"/><path fill="#2cdeea" d="m287.38 193.48-2.1-1.45a.42.41-68 0 1-.17-.42q.12-.7-.85-.94a.22.21-83.2 0 1-.16-.21q0-.11.03-.24.02-.09-.23-.34c-4.97-4.97-12.73-10.82-19.88-12.7a1.55 1.52-11.5 0 1-.79-.51q-2.68-3.3-5.79-1.43l-2.44-.57q8.44-3.34 17.52-.5 14.89 4.67 14.86 19.31"/><path fill="#3c6675" d="m287.38 193.48 5.23 8.93c.15 4.35 2.58 6.56 6.23 8.83-4.63.94-5.94 2.8-8.76 6.19q-1.85 2.21-3.34 2.95c-9.7 4.79-19.92-1.8-25.99-9.02-4.89-5.81-4.67-12.07-3.81-19.24.59-4.85 2.09-10.75 5.51-14.79a.38.38 0 0 0-.17-.61l-4.84-1.48q3.11-1.87 5.79 1.43a1.55 1.52-11.5 0 0 .79.51c7.15 1.88 14.91 7.73 19.88 12.7q.25.25.23.34-.03.13-.03.24a.22.21-83.2 0 0 .16.21q.97.24.85.94a.42.41-68 0 0 .17.42z"/><path fill="none" stroke="#738a97" stroke-width="2" d="M288.11 208.53q-5.73 1.05-11.37-2.76c-6.42-4.32-9.81-9.52-12.4-16.36" vector-effect="non-scaling-stroke"/><path fill="#132e43" d="M241.77 175.16q1.32 10.69 4.13 20.92c3.99 14.48 14.82 27.58 30.51 29.71 10.41 1.41 19.67-1.11 29.2-5.14l7.39 9.25 7.6 10.78q-10.96-2.29-20.5-.38-20.58 4.11-34.95 5.83-5.71-7.06-10.88-14.43-2.33-3.31-5.71-5.5-1.95-1.25-3.54-.74-1.21.38-4.02 2.36-10.51-21.67-18.71-44.82.63-.62 1.43-.95 5.53-3.61 11.79-5.44l2.07-.6a.23.22 78.5 0 0 .16-.25q-.04-.29-.33-.29a.32.32 0 0 1-.31-.35q.02-.3.45-.63a.28.28 0 0 1 .44.25q-.05.38.35.8.18.19.78.11 1.29-.18 2.65-.49"/><path fill="#134758" d="m255 174.67 2.44.57 4.84 1.48a.38.38 0 0 1 .17.61c-3.42 4.04-4.92 9.94-5.51 14.79-.86 7.17-1.08 13.43 3.81 19.24 6.07 7.22 16.29 13.81 25.99 9.02q1.49-.74 3.34-2.95c2.82-3.39 4.13-5.25 8.76-6.19q2.06 3.27 5.12 5.75.39.75 1.06 1.27.09 1.36.59 2.39c-9.53 4.03-18.79 6.55-29.2 5.14-15.69-2.13-26.52-15.23-30.51-29.71q-2.81-10.23-4.13-20.92l1.29-.39z"/><path fill="#095976" d="M222.79 181.13q.31.59.93.92-.8.33-1.43.95l-7.4 6.08q-7.28-.78-14.52-.49c-15.45.64-26.76 8.97-35.5 22.05q-7.61 11.38-16.83 30.97-2.31 4.9-4.46 11.2-2.26 6.61-.03 12.87a.74.74 0 0 0 1.28.22c.31-.37.14-3.58.14-6.43q.01-7.75 4.47-13.52a.3.3 0 0 1 .54.17q.01.46-.25 1.14-3.34 7.55-3.93 16.29a.96.96 0 0 0 1.14 1q4.46-.86 8.64-3.6.28-.35.73-.28a.4.4 0 0 1 .22.67l-13.71 14.55-11.58 12.49q-1.11 7.19-1.06 13.15c.14 15.39 8.77 29.73 21.21 38.32q6.68 4.62 14.62 7.97 26.12 11.04 29.8 12.58 17.29 7.25 37.47 7.64 28.84.56 64.33 2.39c26.37 1.36 52.1-3.46 65.28-28.78 6.18-11.85 9.24-26.83 10.31-39.02 1.84-20.98 4.23-36.08 9.57-55.34l.35 14.75.06 1.18-.01 30.24-.06 2.75q-.14 9.96-.6 13.29-4.99 36.39-34.77 58.05-3.86 1.36-4.93 2.04-9.43 6.04-20.51 8.29-4.63.94-11.64.47-34.39-2.32-77.99-3.71-10.11-.32-18.41-1.38c-8.56-1.1-16.12-3.47-24.29-7.17-5.76-2.62-11.45-5.26-17.36-7.25q-11.46-3.85-16.06-5.52-15.77-5.72-24.66-19.63-4.75-7.43-10.85-19.64a3.98 3.94 28 0 1-.38-1.22q-1.31-8.63-.85-12.3.52-4.06 2.08-5.92 5.42-6.44 4.12-14.8-4.08-26.31-4.84-31.35c-.26-1.72-.38-4.9-.19-7.05q.69-8.01-1.06-16.08a5.84 5.36-53.9 0 1-.12-1.06q-.17-12.5-.39-23.4c-.11-5.63.56-12.21.64-18.36l1.53-6.23q-.3 3.58-.52 7.17-.24 3.78.31 7.12 4.11 24.66 7.53 38.35c.96 3.84 4.62 17.1 11.13 11.01q2.8-2.62 4.78-6.01c13.46-23.01 25.25-46.35 55.78-48.89q8.38-.7 17.16-.52a1.45 1.45 0 0 0 .9-.29z"/><path fill="#09809f" d="M347.74 367.55q-20.88 14.97-46.94 14.73-3.13-.77-7.59-.82-41.28-.4-56.59-.33c-11.96.06-23.03-.75-33.27-2.39q-6.5-1.05-10.37-3-8.15-4.12-16.92-8.51c-5.82-2.92-15.58-4.12-22.18-6.47q-5.68-2.03-9.7-3.57a.23.23 0 0 0-.23.39l11.79 10.59q-3.25-1.78-5.92-4-24.51-20.32-30.13-51.17-1.39-7.6-1.37-18 .04-27.6.06-55.21v-2.33l.05-2.73q1.72 2.83 1.12-3.91a.26.18 68.9 0 1 .03-.12l.04-.07a.02.02 0 0 1 .04.01q-.31 1.1-.02 1.71a.24.24 0 0 0 .46-.12c-.31-9.81-.15-19.26-1.64-28.27q-.39-10.87 1.59-21.45c-.08 6.15-.75 12.73-.64 18.36q.22 10.9.39 23.4a5.84 5.36-53.9 0 0 .12 1.06q1.75 8.07 1.06 16.08c-.19 2.15-.07 5.33.19 7.05q.76 5.04 4.84 31.35 1.3 8.36-4.12 14.8-1.56 1.86-2.08 5.92-.46 3.67.85 12.3a3.98 3.94 28 0 0 .38 1.22q6.1 12.21 10.85 19.64 8.89 13.91 24.66 19.63 4.6 1.67 16.06 5.52c5.91 1.99 11.6 4.63 17.36 7.25 8.17 3.7 15.73 6.07 24.29 7.17q8.3 1.06 18.41 1.38 43.6 1.39 77.99 3.71 7.01.47 11.64-.47 11.08-2.25 20.51-8.29 1.07-.68 4.93-2.04"/><path fill="#0a1f35" d="M241 227.82q-3.36 4.37-6.6 8.69c-4.65 6.2-8.9 13.1-13.47 18.69q-2.49 3.05-6.59 9.25-3.43 5.2-6.67 9.23-1.48 1.84-1.87 4.66a2.28 2.28 0 0 0 1.46 2.45q1.36.5 3.52-.1 6.53-1.83 12.86-4.44l3.85-1.43 6.86-2.53q2.68-.73 5.48-1.37c5.64-1.31 9.85.14 15.9 2.65q17.69 7.34 25.78 10.25c2.44.87 6.62 1.76 7.08-1.78.45-3.48-2.16-6.44-4.07-9.11l-12.81-17.29.08-.14-4.3-6.07-2.34-3.3q14.37-1.72 34.95-5.83 9.54-1.91 20.5.38l11.31 17.78 3.79 7.66 1.06 5.27a.12.12 0 0 0 .24-.03v-.55l.23 1.48q.16 5.46-.04 10.9-.09 2.7-4.09 11.19-3.73 7.91-12.95 12.7-12.91 6.72-25.86 9.72-6.53 1.5-19.84 2l-17.64-6.5q-.22-1.11-2.56-1.83-5.18-2.67-11.05-3.82l-5.39-1.73-5.48-1.82a.31.31 0 0 1-.19-.19q-.09-.24.07-.46l1.57.86a.14.14 0 0 0 .18-.21c-.9-1.05-2.51-1.4-3.82-1.55l-4.1-1.02-1.21-.83-22.62-7.99a1.97 1.73-32 0 0-.61-.1q-18.35.37-24.81-.09-8.3-.6-12.55-1.59-12.44-2.89-21.71-12.73l.29-1.31 13.71-14.55a.4.4 0 0 0-.22-.67q-.45-.07-.73.28 1.3-1.37 2.36-2.94.15-.23.44-.32a.21.21 0 0 1 .23.33q-.48.68.16.63a.21.2 15.4 0 0 .13-.07l6.02-6.29 6.66-7.55q4.77-5.53 9.23-11.45c2.26-2.99 5.54-6.35 7.71-10.13.96-1.69 2.44-3.4 3.74-4.93q5.82-4.91 9.67-11.59l7.36-11.31 2.37-2.56 3.23-3.69 7.4-6.08q8.2 23.15 18.71 44.82"/><path fill="#106671" d="m214.89 189.08-3.23 3.69c-16.09-3.57-28.68 2.02-38.13 15.04q-8.08 11.13-16.13 25.08c-2.4 4.14-4.9 9.66-7.67 14.37q.26-.68.25-1.14a.3.3 0 0 0-.54-.17q-4.46 5.77-4.47 13.52c0 2.85.17 6.06-.14 6.43a.74.74 0 0 1-1.28-.22q-2.23-6.26.03-12.87 2.15-6.3 4.46-11.2 9.22-19.59 16.83-30.97c8.74-13.08 20.05-21.41 35.5-22.05q7.24-.29 14.52.49"/><path fill="#859aa5" d="M288.11 208.53q-5.73 1.05-11.37-2.76c-6.42-4.32-9.81-9.52-12.4-16.36 7.69-1.88 14.15 4.4 18.45 10.23 1.85 2.51 3.37 6 5.32 8.89"/><path fill="#607a89" d="M264.34 189.41c2.59 6.84 5.98 12.04 12.4 16.36q5.64 3.81 11.37 2.76 2.47 3.79 1.59 7.6a.64.64 0 0 1-.62.49q-4.5-.03-7.95-.34c-10.05-.9-19.66-10.58-22.63-19.87a1.57 1.56 44.7 0 1-.01-.9q1.27-4.35 5.85-6.1"/><path fill="#10848e" d="m211.66 192.77-2.37 2.56q-16.93-2.82-28.42 9.78-8.9 9.78-12.25 15.76-8.09 14.46-15.73 27.36c-2.27 3.84-3.78 7.48-4.59 11.41a1.14 1.14 0 0 0 1.37 1.34q5.26-1.23 9.36-5.27l5.89-3.42-6.02 6.29a.21.2 15.4 0 1-.13.07q-.64.05-.16-.63a.21.21 0 0 0-.23-.33q-.29.09-.44.32-1.06 1.57-2.36 2.94-4.18 2.74-8.64 3.6a.96.96 0 0 1-1.14-1q.59-8.74 3.93-16.29c2.77-4.71 5.27-10.23 7.67-14.37q8.05-13.95 16.13-25.08c9.45-13.02 22.04-18.61 38.13-15.04"/><path fill="#09809f" d="m209.29 195.33-7.36 11.31q1.12-1.61 1.42-3.26l.4-.94q2.22-2.03 3.47-4.78a.39.39 0 0 0-.34-.55c-13.95-.7-23.58 7.56-30.68 18.62q-5.77 8.98-19.13 30.84-3.73 6.09-5.68 11.87a.43.43 0 0 0 .59.53l7.05-3.26q-4.1 4.04-9.36 5.27a1.14 1.14 0 0 1-1.37-1.34c.81-3.93 2.32-7.57 4.59-11.41q7.64-12.9 15.73-27.36 3.35-5.98 12.25-15.76 11.49-12.6 28.42-9.78"/><path fill="#0c9db8" d="M203.75 202.44c-8.06.06-13.25 6.47-18.26 12.82q-9.6 12.18-14.62 21.24-1.6 2.89-3.12 4.7c-2.43 2.92-5.14 5.55-5.38 9.42a.27.27 0 0 0 .43.23l8.78-6.11-6.66 7.55-5.89 3.42-7.05 3.26a.43.43 0 0 1-.59-.53q1.95-5.78 5.68-11.87 13.36-21.86 19.13-30.84c7.1-11.06 16.73-19.32 30.68-18.62a.39.39 0 0 1 .34.55q-1.25 2.75-3.47 4.78"/><circle cx="344.98" cy="198.53" r=".32" fill="#0e3a4b"/><path fill="#2cdeea" d="m203.75 202.44-.4.94-11.09 14.85c-1.3 1.53-2.78 3.24-3.74 4.93-2.17 3.78-5.45 7.14-7.71 10.13q-4.46 5.92-9.23 11.45l-8.78 6.11a.27.27 0 0 1-.43-.23c.24-3.87 2.95-6.5 5.38-9.42q1.52-1.81 3.12-4.7 5.02-9.06 14.62-21.24c5.01-6.35 10.2-12.76 18.26-12.82"/><path fill="#132e43" d="M203.35 203.38q-.3 1.65-1.42 3.26-3.85 6.68-9.67 11.59z"/><path fill="#10848e" d="m118.43 234.73.03-30.77c1.49 9.01 1.33 18.46 1.64 28.27a.24.24 0 0 1-.46.12q-.29-.61.02-1.71a.02.02 0 0 0-.04-.01l-.04.07a.26.18 68.9 0 0-.03.12q.6 6.74-1.12 3.91"/><path fill="#095976" d="M312.6 218.83c4.36 3.31 7.96 6.86 12.24 10.54 4.92 4.23 11.23 7.35 15.22 10.34 3.72 2.79 8.52 6.51 11.1 10.82 3.78 6.32 8.22 13.84 8.13 21.07q-.06 5.03-1.85 10.44a.49.48-1.8 0 0 .64.6q.56-.21 1.26-1.06a.23.23 0 0 1 .38.25q-.09.17-.29.3a.66.64 80.5 0 0-.27.39l-.45 1.99c-10.19 19.36-22.56 35.5-40.87 47.61-17.9 11.84-40.8 13.11-60.94 5.49-20.36-7.71-37.19-18.29-56.59-26.36q-10.14-4.22-23.18-9.79a1.8 1.8 0 0 0-.75-.14q-8.61.32-17.11-2.3 5.77-1.85 11.16-1.9 18.44-.19 36.88.11 2.77.05 11.25 1.64l7.48 1.66 4.1 1.02 2.07.9q-.16.22-.07.46a.31.31 0 0 0 .19.19l5.48 1.82-18.94-2.97q-3.56-.63-7.18-.94-15.59-1.32-29.91-1.67a.39.39 0 0 0-.14.75q3.76 1.37 7.89 2.22c6.51 1.33 14.93 5.13 19.01 6.54 9.33 3.25 17.88 7.66 25.71 10.6q.72.27 7.59 3.58c6.05 2.9 12.35 4.75 19.01 7.12 10.75 3.83 21.61 5.31 32.89 4.47 15.38-1.14 29.28-11.8 39.36-23.15 8.58-9.67 13.98-22.76 16.67-35.57 1.87-8.9 2.83-14.89-2.33-21.84q-3.4-5.08-8.76-8.16a.85.85 0 0 0-1.25.93q2.25 9.81-1.73 19.29l-3.79-7.66q-2.09-7.53-3.97-15.16c-1.3-5.25-5.16-13.19-10.73-15.12q-2.34-.81-4.21 1.72l-7.39-9.25q-.5-1.03-.59-2.39 3.93 4.78 5.77 5.63 6.53 2.99 11.97 6.52a.52.52 0 0 0 .71-.72c-2.32-3.45-7.31-6.04-10.87-10.86"/><path fill="#072f55" d="m382.69 238.17.15 4.66c-6.85 17.44-11.06 34.97-13.28 53.52-3.03 25.3-8.27 52.99-33 65.17-10.98 5.4-24.18 6.44-36.53 6.16q-7.36-.16-26.36-1.33c-13.64-.84-25.88-.94-39.32-1.64-13.98-.73-26.33-3.3-40.16-8.67q-17.67-6.86-31.22-13.82c-13.59-6.99-24.35-18.15-28.5-32.5q-2.73-9.41-3.23-21.34l11.58-12.49-.29 1.31c-6.01 5.31-3.73 12.37 2.68 15.55 2.23 1.11 5.17.97 8.31.96q2.57 0 6.33.32 12.07 1.05 16.66.54c6.92-.77 14.7-2.53 21.24-2q8.33.67 16.68 4.73c-10.71-1.41-18.99-1.51-29.28-.89q-2.49.14-9.35-.05-8.72-.25-16.53 2.66 8.5 2.62 17.11 2.3a1.8 1.8 0 0 1 .75.14q13.04 5.57 23.18 9.79c19.4 8.07 36.23 18.65 56.59 26.36 20.14 7.62 43.04 6.35 60.94-5.49 18.31-12.11 30.68-28.25 40.87-47.61l1.46-1.93a1.38 1.35 66.7 0 0 .25-.65q2.65-24.21-15.32-40.45-4.44-4.01-15.22-10.62-2.39-1.46-9.56-7.24c11.22 6.2 23.28 13.7 31.42 23.85q5.97 7.46 8.73 11.36c5.27 7.47 10.31 7.88 14.46-.72q2.23-4.63 7.76-19.94"/><path fill="#095976" d="m265.15 246.13 2.34 3.3q-.56 3.9 2.59 7.54-2.02 6.23-8.69 5.57-14.69-1.46-17.3-1.6c-12-.61-17.34 4.03-20.45 15.31q-6.33 2.61-12.86 4.44-2.16.6-3.52.1a2.28 2.28 0 0 1-1.46-2.45q.39-2.82 1.87-4.66 3.24-4.03 6.67-9.23 4.1-6.2 6.59-9.25c4.57-5.59 8.82-12.49 13.47-18.69q3.24-4.32 6.6-8.69 2.81-1.98 4.02-2.36 1.59-.51 3.54.74 3.38 2.19 5.71 5.5 5.17 7.37 10.88 14.43"/><path fill="#134758" d="m331.91 258.46-11.31-17.78-7.6-10.78q1.87-2.53 4.21-1.72c5.57 1.93 9.43 9.87 10.73 15.12q1.88 7.63 3.97 15.16"/><path fill="#095976" d="M118.38 237.46v2.33z"/><path fill="#134758" d="m382.84 242.83-.07 4.46c-5.34 19.26-7.73 34.36-9.57 55.34-1.07 12.19-4.13 27.17-10.31 39.02-13.18 25.32-38.91 30.14-65.28 28.78q-35.49-1.83-64.33-2.39-20.18-.39-37.47-7.64-3.68-1.54-29.8-12.58-7.94-3.35-14.62-7.97c-12.44-8.59-21.07-22.93-21.21-38.32q-.05-5.96 1.06-13.15.5 11.93 3.23 21.34c4.15 14.35 14.91 25.51 28.5 32.5q13.55 6.96 31.22 13.82c13.83 5.37 26.18 7.94 40.16 8.67 13.44.7 25.68.8 39.32 1.64q19 1.17 26.36 1.33c12.35.28 25.55-.76 36.53-6.16 24.73-12.18 29.97-39.87 33-65.17 2.22-18.55 6.43-36.08 13.28-53.52"/><path fill="#10848e" d="m347.44 254.06-6.72-5.55a.43.43 0 0 0-.7.31c-.44 6.83-1.43 10.96-3.65 19.34a1.59 1.54 44 0 0 .03.9l.6 1.75v.55a.12.12 0 0 1-.24.03l-1.06-5.27q3.98-9.48 1.73-19.29a.85.85 0 0 1 1.25-.93q5.36 3.08 8.76 8.16"/><path fill="#09809f" d="M347.44 254.06c5.16 6.95 4.2 12.94 2.33 21.84-2.69 12.81-8.09 25.9-16.67 35.57-10.08 11.35-23.98 22.01-39.36 23.15-11.28.84-22.14-.64-32.89-4.47-6.66-2.37-12.96-4.22-19.01-7.12q-6.87-3.31-7.59-3.58c-7.83-2.94-16.38-7.35-25.71-10.6-4.08-1.41-12.5-5.21-19.01-6.54q-4.13-.85-7.89-2.22a.39.39 0 0 1 .14-.75q14.32.35 29.91 1.67 3.62.31 7.18.94l25.09 5.4 9.55 3.61q-.98.05-1.4-.09c-4.86-1.59-9.12-3.03-13.99-3.8-13.81-2.17-25.42-4.41-38.11-5.21a.25.25 0 0 0-.16.46q3.56 2.38 7.39 3.75 7.1 2.52 16.78 5.38 2.32.68 6.17 2.44a.14.14 0 0 0 .19-.07v-.01a.32.32 0 0 0-.16-.44l-19.92-8.03a.28.28 0 0 1 .08-.54c7.77-.57 15.5.89 23.11 2.51l-19.16-2.17a.22.22 0 0 0-.11.43l5.05 2.04a.04.04 0 0 1-.02.08q-1.53-.32-4.7-1.18a.04.03-7.5 0 0-.05.05q.04.05.02.08a.18.1 22 0 0 .14.17c10.26 3.81 15.94 6.51 25.39 9.96q5.07 1.86 11.18 4.7a.11.05 77.1 0 1 .05.06q.01.02.04.03a.03.03 0 0 1-.03.05q-7.93-3.11-15.97-5.86-.85-.29-1.69-.64-.01 0 0 0 .83.37 1.69.64 20.05 9.54 35.59 12.78 9.5 1.98 17.88 2.21 15.81.43 28.23-9.79l6.46-5.15c6.54-2.42 9.24-7.61 13.06-14 6.91-11.56 7.44-24.48 7.29-37.45a.61.61 0 0 0-.98-.48c-2.55 1.9-2.9 2.98-1.83 6.31 2.32 7.21.56 16.2-1.65 23.47a.01.01 0 0 1-.02.01q0-.01-.01-.01a.05.04 27.1 0 1-.02-.05q2-6.83 2.43-13.91.35-5.91-3.8-9.91.23-.8-.01-1.16a.32.32 0 0 0-.59.17l-.12 3.5-.23-1.48-.6-1.75a1.59 1.54 44 0 1-.03-.9c2.22-8.38 3.21-12.51 3.65-19.34a.43.43 0 0 1 .7-.31z"/><path fill="#10848e" d="m267.49 249.43 4.3 6.07q-1.12.59-1.71 1.47-3.15-3.64-2.59-7.54"/><path fill="#09809f" d="m271.79 255.5-.08.14c1.38 5.59 1.42 10.56-5.34 11.8-5.32.97-10.26-.08-16.68-1.23-7.82-1.4-12.36 1.45-18.72 4.8q-2.44 1.29-3.48 3.81l-3.85 1.43c3.11-11.28 8.45-15.92 20.45-15.31q2.61.14 17.3 1.6 6.67.66 8.69-5.57.59-.88 1.71-1.47"/><path fill="#0c9db8" d="m271.71 255.64 12.81 17.29q-4.52.71-8.96 1.9-5.61 1.5-13.38-1.36-7.95-2.93-9.09-3.27-9.95-3.03-19.67.68a.64.64 0 0 0 .09 1.22l.84.19-6.86 2.53q1.04-2.52 3.48-3.81c6.36-3.35 10.9-6.2 18.72-4.8 6.42 1.15 11.36 2.2 16.68 1.23 6.76-1.24 6.72-6.21 5.34-11.8"/><path fill="#072f55" d="m383.18 263.22-.06-1.18z"/><path fill="#0c9db8" d="M323.48 315.8q.74-.66 1.69-1.1.1-.05.13-.13.06-.13.07-.28a.05.05 0 0 0-.09-.03q-.13.22-.36.26a.22.22 0 0 1-.21-.36q.31-.41.24-.79a.41.41 0 0 0-.65-.26l-2.98 2.18q1.69-2.24 4.11-3.49a2.61 2.59 6.7 0 0 .78-.61q2.61-3.04 3.53-4.15.61-.73.63-1.03.05-.83.65-.94.76-.14.82-1.46.08-1.69 1.14-3.12a.11.09-77.6 0 1 .05-.04q.21-.1.32.03a.18.18 0 0 0 .25.01q1.18-1.17 1.63-2.44a.2.2 0 0 1 .38.02q.12.43.13.45a.16.16 0 0 0 .29.02l.4-.76a.61.59-60.5 0 0-.21-.79q-.28-.15.21-2.15a.2.2 0 0 0-.3-.21q-.01.01-.08.37-.12.59-.12.61.32 1.17-.58 1.46a.19.19 0 0 1-.2-.3q.65-.79 1.01-2.67a.26.25 79.2 0 1 .11-.17q.14-.09.31.19a.08.08 0 0 0 .15-.04l.16-2.63a.04.03-44.2 0 1 .07 0v.36a.09.09 0 0 0 .17.02l1.09-5.62-.27-16.43q4.15 4 3.8 9.91-.43 7.08-2.43 13.91a.05.04 27.1 0 0 .02.05q.01 0 .01.01a.01.01 0 0 0 .02-.01c2.21-7.27 3.97-16.26 1.65-23.47-1.07-3.33-.72-4.41 1.83-6.31a.61.61 0 0 1 .98.48c.15 12.97-.38 25.89-7.29 37.45-3.82 6.39-6.52 11.58-13.06 14"/><path fill="#072f55" d="m337.95 269.78.27 16.43-.12-11.22a.16.16 0 0 0-.16-.16h-.01a.17.16 83.3 0 0-.12.16l-.05 11.13a6.82 6.74 55.4 0 1-.39 2.21l-2.24 6.33c-6.48 10.31-12.3 17.05-23.8 21.12q-8.16 2.89-18.53 3.51-6.69.4-13.36 1.28l-4.99-1.77q13.31-.5 19.84-2 12.95-3 25.86-9.72 9.22-4.79 12.95-12.7 4-8.49 4.09-11.19.2-5.44.04-10.9l.12-3.5a.32.32 0 0 1 .59-.17q.24.36.01 1.16"/><path fill="#2cdeea" d="M284.52 272.93c1.91 2.67 4.52 5.63 4.07 9.11-.46 3.54-4.64 2.65-7.08 1.78q-8.09-2.91-25.78-10.25c-6.05-2.51-10.26-3.96-15.9-2.65q-2.8.64-5.48 1.37l-.84-.19a.64.64 0 0 1-.09-1.22q9.72-3.71 19.67-.68 1.14.34 9.09 3.27 7.77 2.86 13.38 1.36 4.44-1.19 8.96-1.9"/><path fill="#134758" d="M337.86 272.98q.17.29.07.96a.34.34 0 0 1-.65.08q-.04-.1.15-.97a.23.23 0 0 1 .43-.07"/><path fill="#095976" d="m338.22 286.21-1.09 5.62a.09.09 0 0 1-.17-.02v-.36a.04.03-44.2 0 0-.07 0l-.16 2.63a.08.08 0 0 1-.15.04q-.17-.28-.31-.19a.26.25 79.2 0 0-.11.17q-.36 1.88-1.01 2.67a.19.19 0 0 0 .2.3q.9-.29.58-1.46 0-.02.12-.61.07-.36.08-.37a.2.2 0 0 1 .3.21q-.49 2-.21 2.15a.61.59-60.5 0 1 .21.79l-.4.76a.16.16 0 0 1-.29-.02q-.01-.02-.13-.45a.2.2 0 0 0-.38-.02q-.45 1.27-1.63 2.44a.18.18 0 0 1-.25-.01q-.11-.13-.32-.03a.11.09-77.6 0 0-.05.04q-1.06 1.43-1.14 3.12-.06 1.32-.82 1.46-.6.11-.65.94-.02.3-.63 1.03-.92 1.11-3.53 4.15a2.61 2.59 6.7 0 1-.78.61q-2.42 1.25-4.11 3.49l-1.53 1.09a.11.1 38.3 0 1-.11.01q-.13-.07-.14-.25a.15.14-1.9 0 0-.16-.14q-.38.01-.3.41a.49.48-22 0 1-.22.51c-3.25 2.02-5.3 3.6-8.43 3.19q-.35-.05-.49.23a.15.15 0 0 0 .13.23h.79a.26.26 0 0 1 .13.49q-1.57.92-4.55 1.15-2.22.16-4.24.68a.05.04 71.1 0 0-.02.06q.11.16.01.38a.27.26 12.9 0 1-.21.13l-9.72.23-7.3-1.31c4.65-.89 8.3-.88 13.67-1.32 8.62-.72 14.94-2.94 22.27-7.91q10.22-6.93 14.23-18.49l2.24-6.33a6.82 6.74 55.4 0 0 .39-2.21l.05-11.13a.17.16 83.3 0 1 .12-.16h.01a.16.16 0 0 1 .16.16z"/><path fill="#132e43" d="M142.53 277.2q9.27 9.84 21.71 12.73 4.25.99 12.55 1.59 6.46.46 24.81.09a1.97 1.73-32 0 1 .61.1l22.62 7.99-3.4-.77-2.11-.56a.07.07 0 0 0-.06.13q1.13.72 2.17.43 1.59.68 3.4.77l1.21.83-7.48-1.66-4.13-1.57q-8.35-4.06-16.68-4.73c-6.54-.53-14.32 1.23-21.24 2q-4.59.51-16.66-.54-3.76-.32-6.33-.32c-3.14.01-6.08.15-8.31-.96-6.41-3.18-8.69-10.24-2.68-15.55"/><path fill="#134758" d="m383.17 293.46-.06 2.75zM335.13 294.66q-4.01 11.56-14.23 18.49c-7.33 4.97-13.65 7.19-22.27 7.91-5.37.44-9.02.43-13.67 1.32l-5.52-1.81q6.67-.88 13.36-1.28 10.37-.62 18.53-3.51c11.5-4.07 17.32-10.81 23.8-21.12M214.43 297.3l4.13 1.57q-8.48-1.59-11.25-1.64-18.44-.3-36.88-.11-5.39.05-11.16 1.9 7.81-2.91 16.53-2.66 6.86.19 9.35.05c10.29-.62 18.57-.52 29.28.89"/><path fill="#072f55" d="M221.43 298.93q-1.04.29-2.17-.43a.07.07 0 0 1 .06-.13zM224.83 299.7q-1.81-.09-3.4-.77z"/><ellipse fill="#072f55" rx=".34" ry=".07" transform="rotate(189.3 125.974 140.847)"/><path fill="#072f55" d="m232.21 302.45-2.07-.9c1.31.15 2.92.5 3.82 1.55a.14.14 0 0 1-.18.21z"/><path fill="#0c9db8" d="m253.51 310.96.74-.49q2.34.72 2.56 1.83l-3.74-.15a.05.03 9.2 0 0-.04.02v.01a.03.02-75.1 0 0 .02.04l3.13.36a.17.05 6.6 0 0 .15-.03q.03-.03.03.04a.13.11 4.5 0 1-.16.11l-12.41-2.53-10.3-2.86c-7.61-1.62-15.34-3.08-23.11-2.51a.28.28 0 0 0-.08.54l19.92 8.03a.32.32 0 0 1 .16.44v.01a.14.14 0 0 1-.19.07q-3.85-1.76-6.17-2.44-9.68-2.86-16.78-5.38-3.83-1.37-7.39-3.75a.25.25 0 0 1 .16-.46c12.69.8 24.3 3.04 38.11 5.21 4.87.77 9.13 2.21 13.99 3.8q.42.14 1.4.09"/><path fill="#10848e" d="m237.81 304.92 5.39 1.73q.43.24.76.7l-25.09-5.4z"/><ellipse fill="#072f55" rx=".39" ry=".09" transform="rotate(194.4 138.295 137.057)"/><path fill="#0c9db8" d="m233.49 307.31 10.3 2.86-19.35-3.1a.49.49 0 0 0-.26.93q12.26 4.99 27.58 10.79c4.98 1.88 8.9 2.85 13.83 4.39 10.37 3.24 22.11 3.68 32.88 2.69l5.5-.86a.27.26-11.3 0 1 .29.19l.09.34a.06.06 0 0 1-.04.08l-4.39 1.23a.14.14 0 0 0-.09.2v.01a.15.14 70 0 0 .19.1l17-6.21q-12.42 10.22-28.23 9.79-8.38-.23-17.88-2.21-15.54-3.24-35.59-12.78 8.04 2.75 15.97 5.86a.03.03 0 0 0 .03-.05q-.03-.01-.04-.03a.11.05 77.1 0 0-.05-.06q-6.11-2.84-11.18-4.7c-9.45-3.45-15.13-6.15-25.39-9.96a.18.1 22 0 1-.14-.17q.02-.03-.02-.08a.04.03-7.5 0 1 .05-.05q3.17.86 4.7 1.18a.04.04 0 0 0 .02-.08l-5.05-2.04a.22.22 0 0 1 .11-.43z"/><path fill="#072f55" d="m254.25 310.47-.74.49-9.55-3.61q-.33-.46-.76-.7 5.87 1.15 11.05 3.82"/><path fill="#2cdeea" d="m243.79 310.17 12.41 2.53a.13.11 4.5 0 0 .16-.11q0-.07-.03-.04a.17.05 6.6 0 1-.15.03l-3.13-.36a.03.02-75.1 0 1-.02-.04v-.01a.05.03 9.2 0 1 .04-.02l3.74.15 17.64 6.5 4.99 1.77 5.52 1.81 7.3 1.31q-1.04 1.3-2.55 1.55a.16.16 0 0 0-.08.28q.12.1.35.11 4.22.19 8.49.24c-10.77.99-22.51.55-32.88-2.69-4.93-1.54-8.85-2.51-13.83-4.39q-15.32-5.8-27.58-10.79a.49.49 0 0 1 .26-.93z"/><path fill="#134758" d="M256.18 312.1q-.19-.04-.45-.3a.15.15 0 0 1 .11-.25q.53 0 .59.07a.29.28 72.6 0 1-.25.48"/><path fill="#2cdeea" d="m323.48 315.8-6.46 5.15-17 6.21a.15.14 70 0 1-.19-.1v-.01a.14.14 0 0 1 .09-.2l4.39-1.23a.06.06 0 0 0 .04-.08l-.09-.34a.27.26-11.3 0 0-.29-.19l-5.5.86q-4.27-.05-8.49-.24-.23-.01-.35-.11a.16.16 0 0 1 .08-.28q1.51-.25 2.55-1.55l9.72-.23a.27.26 12.9 0 0 .21-.13q.1-.22-.01-.38a.05.04 71.1 0 1 .02-.06q2.02-.52 4.24-.68 2.98-.23 4.55-1.15a.26.26 0 0 0-.13-.49h-.79a.15.15 0 0 1-.13-.23q.14-.28.49-.23c3.13.41 5.18-1.17 8.43-3.19a.49.48-22 0 0 .22-.51q-.08-.4.3-.41a.15.14-1.9 0 1 .16.14q.01.18.14.25a.11.1 38.3 0 0 .11-.01l1.53-1.09 2.98-2.18a.41.41 0 0 1 .65.26q.07.38-.24.79a.22.22 0 0 0 .21.36q.23-.04.36-.26a.05.05 0 0 1 .09.03q-.01.15-.07.28-.03.08-.13.13-.95.44-1.69 1.1"/><path fill="#0c9db8" d="M235.32 315.75q-.86-.27-1.69-.64-.01 0 0 0 .84.35 1.69.64M300.8 382.28q-46.53.23-93.05.13-6.13-.01-12.24-.37-22.21-1.33-39.77-13.87l-11.79-10.59a.23.23 0 0 1 .23-.39q4.02 1.54 9.7 3.57c6.6 2.35 16.36 3.55 22.18 6.47q8.77 4.39 16.92 8.51 3.87 1.95 10.37 3c10.24 1.64 21.31 2.45 33.27 2.39q15.31-.07 56.59.33 4.46.05 7.59.82"/></svg>